<?xml version="1.0" encoding="iso-8859-1"?>
<!-- Generator: Adobe Illustrator 19.0.0, SVG Export Plug-In . SVG Version: 6.00 Build 0)  -->
<svg version="1.1" id="Layer_1" xmlns="http://www.w3.org/2000/svg" xmlns:xlink="http://www.w3.org/1999/xlink" x="0px" y="0px"
	 viewBox="0 0 512.002 512.002" style="enable-background:new 0 0 512.002 512.002;" xml:space="preserve">
<g>
	<g>
		<g>
			<path d="M0.003,488.73c0,12.847,10.426,23.273,23.273,23.273h209.455V279.275H0.003V488.73z M67.006,379.185
				c-9.1-9.1-9.1-23.831,0-32.908c9.076-9.1,23.808-9.1,32.908,0l16.454,16.454l16.454-16.454c9.1-9.1,23.808-9.1,32.908,0
				c9.1,9.076,9.1,23.808,0,32.908l-16.454,16.454l16.454,16.454c9.1,9.1,9.1,23.808,0,32.908
				c-4.538,4.538-10.496,6.819-16.454,6.819s-11.916-2.281-16.454-6.819l-16.454-16.454L99.913,445
				c-4.538,4.538-10.496,6.819-16.454,6.819S71.544,449.538,67.006,445c-9.1-9.1-9.1-23.808,0-32.908l16.454-16.454L67.006,379.185z
				"/>
			<path d="M232.728,0H23.274C10.427,0,0.001,10.426,0.001,23.273v209.455h232.727V0z M162.91,139.636h-23.273v23.273
				c0,12.846-10.426,23.273-23.273,23.273s-23.273-10.426-23.273-23.273v-23.273H69.819c-12.847,0-23.273-10.426-23.273-23.273
				s10.426-23.273,23.273-23.273h23.273V69.818c0-12.847,10.426-23.273,23.273-23.273s23.273,10.426,23.273,23.273v23.273h23.273
				c12.846,0,23.273,10.426,23.273,23.273S175.757,139.636,162.91,139.636z"/>
			<path d="M488.728,0H279.274v232.727h232.727V23.273C512.001,10.426,501.575,0,488.728,0z M442.183,139.636h-93.091
				c-12.847,0-23.273-10.426-23.273-23.273s10.426-23.273,23.273-23.273h93.091c12.847,0,23.273,10.426,23.273,23.273
				S455.03,139.636,442.183,139.636z"/>
			<path d="M279.274,512h209.455c12.847,0,23.273-10.426,23.273-23.273V279.273H279.274V512z M349.092,349.091h93.091
				c12.847,0,23.273,10.426,23.273,23.273s-10.426,23.273-23.273,23.273h-93.091c-12.847,0-23.273-10.426-23.273-23.273
				S336.246,349.091,349.092,349.091z M349.092,418.909h93.091c12.847,0,23.273,10.426,23.273,23.273s-10.426,23.273-23.273,23.273
				h-93.091c-12.847,0-23.273-10.426-23.273-23.273S336.246,418.909,349.092,418.909z"/>
		</g>
	</g>
</g>
<g>
</g>
<g>
</g>
<g>
</g>
<g>
</g>
<g>
</g>
<g>
</g>
<g>
</g>
<g>
</g>
<g>
</g>
<g>
</g>
<g>
</g>
<g>
</g>
<g>
</g>
<g>
</g>
<g>
</g>
</svg>
